<svg width="130" height="191" viewBox="0 0 130 191" fill="none" xmlns="http://www.w3.org/2000/svg">
<rect width="130" height="191" fill="#00AB37"/>
<path d="M24.9205 158.273V167H23.8977L19.1421 160.148H19.0568V167H18V158.273H19.0227L23.7955 165.142H23.8807V158.273H24.9205ZM31.0238 164.324V160.455H32.0295V167H31.0238V165.892H30.9556C30.8022 166.224 30.5636 166.507 30.2397 166.74C29.9159 166.97 29.5068 167.085 29.0124 167.085C28.6034 167.085 28.2397 166.996 27.9215 166.817C27.6034 166.635 27.3534 166.362 27.1715 165.999C26.9897 165.632 26.8988 165.17 26.8988 164.614V160.455H27.9045V164.545C27.9045 165.023 28.038 165.403 28.3051 165.688C28.5749 165.972 28.9187 166.114 29.3363 166.114C29.5863 166.114 29.8406 166.05 30.0991 165.922C30.3605 165.794 30.5792 165.598 30.7553 165.334C30.9343 165.07 31.0238 164.733 31.0238 164.324ZM29.0124 159.568L30.0522 157.591H31.2284L29.8988 159.568H29.0124ZM33.8715 167V160.455H34.8431V161.477H34.9283C35.0646 161.128 35.2848 160.857 35.5888 160.663C35.8928 160.467 36.2578 160.369 36.684 160.369C37.1158 160.369 37.4752 160.467 37.7621 160.663C38.0519 160.857 38.2777 161.128 38.4396 161.477H38.5078C38.6754 161.139 38.9269 160.871 39.2621 160.672C39.5973 160.47 39.9993 160.369 40.4681 160.369C41.0533 160.369 41.532 160.553 41.9041 160.919C42.2763 161.283 42.4624 161.849 42.4624 162.619V167H41.4567V162.619C41.4567 162.136 41.3246 161.791 41.0604 161.584C40.7962 161.376 40.4851 161.273 40.1271 161.273C39.6669 161.273 39.3104 161.412 39.0575 161.69C38.8047 161.966 38.6783 162.315 38.6783 162.739V167H37.6556V162.517C37.6556 162.145 37.5348 161.845 37.2933 161.618C37.0519 161.388 36.7408 161.273 36.3601 161.273C36.0987 161.273 35.8544 161.342 35.6271 161.482C35.4027 161.621 35.2209 161.814 35.0817 162.061C34.9453 162.305 34.8771 162.588 34.8771 162.909V167H33.8715ZM47.0455 167.136C46.4148 167.136 45.8708 166.997 45.4134 166.719C44.9588 166.438 44.608 166.045 44.3608 165.543C44.1165 165.037 43.9943 164.449 43.9943 163.778C43.9943 163.108 44.1165 162.517 44.3608 162.006C44.608 161.491 44.9517 161.091 45.3921 160.804C45.8352 160.514 46.3523 160.369 46.9432 160.369C47.2841 160.369 47.6208 160.426 47.9531 160.54C48.2855 160.653 48.5881 160.838 48.8608 161.094C49.1335 161.347 49.3509 161.682 49.5128 162.099C49.6747 162.517 49.7557 163.031 49.7557 163.642V164.068H44.7102V163.199H48.733C48.733 162.83 48.6591 162.5 48.5114 162.21C48.3665 161.92 48.1591 161.692 47.8892 161.524C47.6222 161.357 47.3068 161.273 46.9432 161.273C46.5426 161.273 46.196 161.372 45.9034 161.571C45.6137 161.767 45.3906 162.023 45.2344 162.338C45.0781 162.653 45 162.991 45 163.352V163.932C45 164.426 45.0852 164.845 45.2557 165.189C45.429 165.53 45.6691 165.79 45.9759 165.969C46.2827 166.145 46.6392 166.233 47.0455 166.233C47.3097 166.233 47.5483 166.196 47.7614 166.122C47.9773 166.045 48.1634 165.932 48.3196 165.781C48.4759 165.628 48.5966 165.437 48.6818 165.21L49.6534 165.483C49.5512 165.812 49.3793 166.102 49.1378 166.352C48.8963 166.599 48.598 166.793 48.2429 166.932C47.8878 167.068 47.4887 167.136 47.0455 167.136ZM51.2855 167V160.455H52.2571V161.443H52.3253C52.4446 161.119 52.6605 160.857 52.973 160.655C53.2855 160.453 53.6378 160.352 54.0298 160.352C54.1037 160.352 54.196 160.354 54.3068 160.357C54.4176 160.359 54.5014 160.364 54.5583 160.369V161.392C54.5242 161.384 54.446 161.371 54.3239 161.354C54.2046 161.334 54.0781 161.324 53.9446 161.324C53.6264 161.324 53.3423 161.391 53.0923 161.524C52.8452 161.655 52.6492 161.837 52.5043 162.07C52.3622 162.3 52.2912 162.562 52.2912 162.858V167H51.2855ZM58.2102 167.136C57.6193 167.136 57.1009 166.996 56.6548 166.714C56.2117 166.433 55.8651 166.04 55.6151 165.534C55.3679 165.028 55.2443 164.437 55.2443 163.761C55.2443 163.08 55.3679 162.484 55.6151 161.976C55.8651 161.467 56.2117 161.072 56.6548 160.791C57.1009 160.51 57.6193 160.369 58.2102 160.369C58.8012 160.369 59.3182 160.51 59.7614 160.791C60.2074 161.072 60.554 161.467 60.8012 161.976C61.0512 162.484 61.1762 163.08 61.1762 163.761C61.1762 164.437 61.0512 165.028 60.8012 165.534C60.554 166.04 60.2074 166.433 59.7614 166.714C59.3182 166.996 58.8012 167.136 58.2102 167.136ZM58.2102 166.233C58.6591 166.233 59.0284 166.118 59.3182 165.888C59.608 165.658 59.8225 165.355 59.9617 164.98C60.1009 164.605 60.1705 164.199 60.1705 163.761C60.1705 163.324 60.1009 162.916 59.9617 162.538C59.8225 162.161 59.608 161.855 59.3182 161.622C59.0284 161.389 58.6591 161.273 58.2102 161.273C57.7614 161.273 57.3921 161.389 57.1023 161.622C56.8125 161.855 56.598 162.161 56.4588 162.538C56.3196 162.916 56.25 163.324 56.25 163.761C56.25 164.199 56.3196 164.605 56.4588 164.98C56.598 165.355 56.8125 165.658 57.1023 165.888C57.3921 166.118 57.7614 166.233 58.2102 166.233ZM68.5579 167.136C68.0124 167.136 67.5309 166.999 67.1133 166.723C66.6957 166.445 66.369 166.053 66.1332 165.547C65.8974 165.038 65.7795 164.438 65.7795 163.744C65.7795 163.057 65.8974 162.46 66.1332 161.955C66.369 161.449 66.6971 161.058 67.1176 160.783C67.538 160.507 68.0238 160.369 68.5749 160.369C69.0011 160.369 69.3377 160.44 69.5849 160.582C69.8349 160.722 70.0252 160.881 70.1559 161.06C70.2894 161.236 70.3931 161.381 70.467 161.494H70.5522V158.273H71.5579V167H70.5863V165.994H70.467C70.3931 166.114 70.288 166.264 70.1517 166.446C70.0153 166.625 69.8207 166.786 69.5678 166.928C69.315 167.067 68.9784 167.136 68.5579 167.136ZM68.6943 166.233C69.0977 166.233 69.4386 166.128 69.717 165.918C69.9954 165.705 70.207 165.411 70.3519 165.036C70.4968 164.658 70.5693 164.222 70.5693 163.727C70.5693 163.239 70.4982 162.811 70.3562 162.445C70.2142 162.075 70.0039 161.788 69.7255 161.584C69.4471 161.376 69.1034 161.273 68.6943 161.273C68.2681 161.273 67.913 161.382 67.6289 161.601C67.3477 161.817 67.136 162.111 66.994 162.483C66.8548 162.852 66.7852 163.267 66.7852 163.727C66.7852 164.193 66.8562 164.616 66.9982 164.997C67.1431 165.375 67.3562 165.676 67.6374 165.901C67.9215 166.122 68.2738 166.233 68.6943 166.233ZM75.4656 167.153C75.0508 167.153 74.6744 167.075 74.3363 166.919C73.9982 166.76 73.7298 166.531 73.5309 166.233C73.332 165.932 73.2326 165.568 73.2326 165.142C73.2326 164.767 73.3065 164.463 73.4542 164.23C73.6019 163.994 73.7994 163.81 74.0465 163.676C74.2937 163.543 74.5664 163.443 74.8647 163.378C75.1659 163.31 75.4684 163.256 75.7724 163.216C76.1702 163.165 76.4922 163.126 76.7402 163.101C76.9902 163.072 77.1712 163.026 77.2852 162.96C77.4012 162.895 77.4602 162.781 77.4602 162.619V162.585C77.4602 162.165 77.3452 161.838 77.1152 161.605C76.8872 161.372 76.5422 161.256 76.0792 161.256C75.5991 161.256 75.2227 161.361 74.9499 161.571C74.6772 161.781 74.4855 162.006 74.3747 162.244L73.4201 161.903C73.5906 161.506 73.8178 161.196 74.1019 160.974C74.3889 160.75 74.7014 160.594 75.0394 160.506C75.3803 160.415 75.7156 160.369 76.0452 160.369C76.2552 160.369 76.4972 160.395 76.7692 160.446C77.0452 160.494 77.3112 160.595 77.5662 160.749C77.8252 160.902 78.0392 161.134 78.2102 161.443C78.3802 161.753 78.4652 162.168 78.4652 162.688V167H77.4602V166.114H77.4092C77.3402 166.256 77.2272 166.408 77.0682 166.57C76.9092 166.732 76.6972 166.869 76.4332 166.983C76.1682 167.097 75.8463 167.153 75.4656 167.153ZM75.619 166.25C76.0172 166.25 76.3522 166.172 76.6242 166.016C76.9002 165.859 77.1072 165.658 77.2472 165.411C77.3892 165.163 77.4602 164.903 77.4602 164.631V163.71C77.4172 163.761 77.3232 163.808 77.1782 163.851C77.0362 163.891 76.8722 163.926 76.6842 163.957C76.4992 163.986 76.3192 164.011 76.1432 164.034C75.9702 164.054 75.8292 164.071 75.7213 164.085C75.4599 164.119 75.2156 164.175 74.9883 164.251C74.7639 164.325 74.582 164.437 74.4428 164.588C74.3065 164.736 74.2383 164.937 74.2383 165.193C74.2383 165.543 74.3676 165.807 74.6261 165.986C74.8874 166.162 75.2184 166.25 75.619 166.25ZM88.3122 161.92L87.4092 162.176C87.3522 162.026 87.2682 161.879 87.1572 161.737C87.0502 161.592 86.9022 161.473 86.7142 161.379C86.5272 161.286 86.2872 161.239 85.9942 161.239C85.5942 161.239 85.2602 161.331 84.9932 161.516C84.7292 161.697 84.5962 161.929 84.5962 162.21C84.5962 162.46 84.6872 162.658 84.8692 162.803C85.0512 162.947 85.3352 163.068 85.7212 163.165L86.6932 163.403C87.2782 163.545 87.7142 163.763 88.0012 164.055C88.2882 164.345 88.4322 164.719 88.4322 165.176C88.4322 165.551 88.3242 165.886 88.1082 166.182C87.8952 166.477 87.5962 166.71 87.2132 166.881C86.8292 167.051 86.3832 167.136 85.8752 167.136C85.2072 167.136 84.6552 166.991 84.2172 166.702C83.7802 166.412 83.5032 165.989 83.3862 165.432L84.3412 165.193C84.4322 165.545 84.6042 165.81 84.8562 165.986C85.1122 166.162 85.4462 166.25 85.8582 166.25C86.3272 166.25 86.6992 166.151 86.9742 165.952C87.2532 165.75 87.3922 165.509 87.3922 165.227C87.3922 165 87.3122 164.81 87.1532 164.656C86.9942 164.5 86.7502 164.384 86.4202 164.307L85.3292 164.051C84.7302 163.909 84.2902 163.689 84.0082 163.391C83.7302 163.089 83.5912 162.713 83.5912 162.261C83.5912 161.892 83.6942 161.565 83.9022 161.281C84.1122 160.997 84.3982 160.774 84.7582 160.612C85.1222 160.45 85.5342 160.369 85.9942 160.369C86.6422 160.369 87.1502 160.511 87.5202 160.795C87.8922 161.08 88.1562 161.455 88.3122 161.92ZM92.6052 167.136C92.0142 167.136 91.4952 166.996 91.0492 166.714C90.6062 166.433 90.2592 166.04 90.0092 165.534C89.7622 165.028 89.6392 164.437 89.6392 163.761C89.6392 163.08 89.7622 162.484 90.0092 161.976C90.2592 161.467 90.6062 161.072 91.0492 160.791C91.4952 160.51 92.0142 160.369 92.6052 160.369C93.1952 160.369 93.7132 160.51 94.1562 160.791C94.6022 161.072 94.9482 161.467 95.1952 161.976C95.4452 162.484 95.5702 163.08 95.5702 163.761C95.5702 164.437 95.4452 165.028 95.1952 165.534C94.9482 166.04 94.6022 166.433 94.1562 166.714C93.7132 166.996 93.1952 167.136 92.6052 167.136ZM92.6052 166.233C93.0532 166.233 93.4232 166.118 93.7132 165.888C94.0022 165.658 94.2172 165.355 94.3562 164.98C94.4952 164.605 94.5652 164.199 94.5652 163.761C94.5652 163.324 94.4952 162.916 94.3562 162.538C94.2172 162.161 94.0022 161.855 93.7132 161.622C93.4232 161.389 93.0532 161.273 92.6052 161.273C92.1562 161.273 91.7862 161.389 91.4972 161.622C91.2072 161.855 90.9922 162.161 90.8532 162.538C90.7142 162.916 90.6442 163.324 90.6442 163.761C90.6442 164.199 90.7142 164.605 90.8532 164.98C90.9922 165.355 91.2072 165.658 91.4972 165.888C91.7862 166.118 92.1562 166.233 92.6052 166.233ZM97.1062 167V160.455H98.0772V161.443H98.1452C98.2652 161.119 98.4812 160.857 98.7932 160.655C99.1062 160.453 99.4582 160.352 99.8502 160.352C99.9242 160.352 100.016 160.354 100.127 160.357C100.238 160.359 100.322 160.364 100.378 160.369V161.392C100.344 161.384 100.266 161.371 100.144 161.354C100.025 161.334 99.8982 161.324 99.7652 161.324C99.4472 161.324 99.1622 161.391 98.9122 161.524C98.6652 161.655 98.4692 161.837 98.3242 162.07C98.1822 162.3 98.1112 162.562 98.1112 162.858V167H97.1062ZM104.827 160.455V161.307H101.435V160.455H104.827ZM102.424 158.886H103.43V165.125C103.43 165.409 103.471 165.622 103.553 165.764C103.638 165.903 103.746 165.997 103.877 166.045C104.01 166.091 104.151 166.114 104.299 166.114C104.41 166.114 104.501 166.108 104.572 166.097C104.643 166.082 104.699 166.071 104.742 166.062L104.947 166.966C104.878 166.991 104.783 167.017 104.661 167.043C104.539 167.071 104.384 167.085 104.197 167.085C103.912 167.085 103.634 167.024 103.361 166.902C103.091 166.78 102.867 166.594 102.688 166.344C102.512 166.094 102.424 165.778 102.424 165.398V158.886ZM109.014 167.136C108.383 167.136 107.839 166.997 107.382 166.719C106.927 166.438 106.577 166.045 106.329 165.543C106.085 165.037 105.963 164.449 105.963 163.778C105.963 163.108 106.085 162.517 106.329 162.006C106.577 161.491 106.92 161.091 107.361 160.804C107.804 160.514 108.321 160.369 108.912 160.369C109.253 160.369 109.589 160.426 109.922 160.54C110.254 160.653 110.557 160.838 110.829 161.094C111.102 161.347 111.319 161.682 111.481 162.099C111.643 162.517 111.724 163.031 111.724 163.642V164.068H106.679V163.199H110.702C110.702 162.83 110.628 162.5 110.48 162.21C110.335 161.92 110.128 161.692 109.858 161.524C109.591 161.357 109.275 161.273 108.912 161.273C108.511 161.273 108.165 161.372 107.872 161.571C107.582 161.767 107.359 162.023 107.203 162.338C107.047 162.653 106.969 162.991 106.969 163.352V163.932C106.969 164.426 107.054 164.845 107.224 165.189C107.398 165.53 107.638 165.79 107.944 165.969C108.251 166.145 108.608 166.233 109.014 166.233C109.278 166.233 109.517 166.196 109.73 166.122C109.946 166.045 110.132 165.932 110.288 165.781C110.444 165.628 110.565 165.437 110.65 165.21L111.622 165.483C111.52 165.812 111.348 166.102 111.106 166.352C110.865 166.599 110.567 166.793 110.211 166.932C109.856 167.068 109.457 167.136 109.014 167.136Z" fill="white"/>
<path fill-rule="evenodd" clip-rule="evenodd" d="M87.777 58.0358C76.257 55.8091 67.4574 53.6891 65.5241 53.2091L65.5108 53.0625L65.4974 53.0225C67.5241 52.5958 77.471 50.7025 88.257 51.6891C107.724 53.4758 105.471 27.2358 89.964 31.7958C95.604 17.0091 73.7908 11.0758 70.0441 30.4491C67.8041 42.0491 65.6574 50.8758 65.2041 52.7292C65.1641 52.7158 65.1241 52.7158 65.0841 52.7158L65.0308 52.7292C64.6174 50.7158 62.7108 40.7692 63.6974 29.9692C65.4841 10.5025 39.2441 12.7558 43.8041 28.2624C29.0041 22.6224 23.0841 44.4224 42.4574 48.1691C54.0441 50.4224 62.8708 52.5558 64.7374 53.0091C64.7241 53.0491 64.7108 53.1025 64.7241 53.1425V53.1958C62.6708 53.6225 52.7374 55.5158 41.9641 54.5291C22.5108 52.7425 24.7508 78.9824 40.2574 74.4224C34.6174 89.2091 56.4308 95.1291 60.1774 75.7558C62.1641 65.5558 64.0574 57.4891 64.7908 54.4358C65.0974 60.4491 64.4841 66.4758 63.2441 72.3424C61.9241 78.6491 59.9374 84.8091 57.8574 90.9425C55.6841 97.0358 53.6841 103.423 52.8574 110.009C51.9641 116.596 52.1108 123.382 53.4041 129.969V129.982L53.4174 130.049C53.6574 131.076 54.6841 131.716 55.7108 131.476C56.7508 131.223 57.3908 130.196 57.1508 129.169C55.7108 123.036 55.3108 116.676 55.9241 110.369C56.2174 107.209 56.7508 104.062 57.4841 100.956C58.2041 97.8358 59.1508 94.7824 60.0841 91.6491C61.9374 85.4091 63.6974 79.1025 64.7774 72.6358C65.6574 67.4625 66.0574 62.1958 65.8174 56.9558C66.4574 61.2225 67.2308 68.5158 66.5241 76.2491C64.7374 95.7024 90.991 93.4625 86.431 77.9558C101.217 83.5958 107.151 61.7825 87.777 58.0358Z" fill="white"/>
</svg>
